<?xml version="1.0" standalone="no"?>
<!DOCTYPE svg PUBLIC "-//W3C//DTD SVG 20010904//EN"
 "http://www.w3.org/TR/2001/REC-SVG-20010904/DTD/svg10.dtd">
<svg version="1.0" xmlns="http://www.w3.org/2000/svg"
 width="125.000000pt" height="125.000000pt" viewBox="0 0 125.000000 125.000000"
 preserveAspectRatio="xMidYMid meet">
<metadata>
Created by potrace 1.11, written by Peter Selinger 2001-2013
</metadata>
<g transform="translate(0.000000,125.000000) scale(0.100000,-0.100000)"
fill="#000000" stroke="none">
<path d="M557 1183 c-4 -3 0 -17 8 -29 8 -13 24 -39 35 -58 30 -53 52 -91 110
-191 29 -49 60 -103 70 -120 9 -16 28 -48 41 -71 13 -23 53 -91 87 -152 l64
-112 114 0 c63 0 114 2 114 4 0 3 -23 44 -51 93 -28 48 -60 103 -70 121 -37
63 -57 99 -129 222 -91 157 -106 182 -129 224 -47 82 -35 76 -152 76 -58 0
-109 -3 -112 -7z"/>
<path d="M453 1138 c-10 -11 -51 -81 -134 -225 -37 -64 -57 -100 -129 -223
-92 -159 -106 -182 -130 -225 -11 -20 -20 -46 -20 -58 0 -22 98 -197 110 -197
4 0 28 37 53 82 26 46 58 101 71 123 13 22 65 112 116 200 124 214 123 212
159 273 17 29 31 58 31 65 0 12 -93 174 -109 190 -4 4 -13 2 -18 -5z"/>
</g>
</svg>
